<svg width="200" height="200" viewBox="0 0 200 200" fill="none" xmlns="http://www.w3.org/2000/svg">
  <rect width="200" height="200" rx="48" fill="#000000"/>
  <circle cx="100" cy="100" r="70" fill="url(#a)" opacity=".36"/>
  <path d="M102 31C82 52 75 72 80 91C84 107 96 116 104 129C114 145 110 162 91 176" stroke="url(#b)" stroke-width="10" stroke-linecap="round"/>
  <path d="M102 31C126 51 134 72 129 92C125 108 111 117 103 130C93 146 98 163 119 176" stroke="url(#c)" stroke-width="10" stroke-linecap="round"/>
  <path d="M72 78C85 64 115 64 128 78" stroke="#FFFFFF" stroke-width="7" stroke-linecap="round"/>
  <path d="M66 112C82 126 118 126 134 112" stroke="#FFFFFF" stroke-width="7" stroke-linecap="round"/>
  <path d="M100 49L109 82L142 92L109 102L100 135L91 102L58 92L91 82L100 49Z" fill="url(#d)"/>
  <path d="M57 139C35 122 34 91 57 74C74 61 94 68 100 91C106 68 126 61 143 74C166 91 165 122 143 139" stroke="url(#e)" stroke-width="6" stroke-linecap="round"/>
  <circle cx="100" cy="92" r="11" fill="#000000" opacity=".82"/>
  <defs>
    <radialGradient id="a" cx="0" cy="0" r="1" gradientUnits="userSpaceOnUse" gradientTransform="translate(100 100) rotate(90) scale(70)">
      <stop stop-color="#FFFFFF"/>
      <stop offset=".36" stop-color="#7DD3FC" stop-opacity=".58"/>
      <stop offset="1" stop-color="#F0ABFC" stop-opacity="0"/>
    </radialGradient>
    <linearGradient id="b" x1="65" y1="32" x2="111" y2="176" gradientUnits="userSpaceOnUse">
      <stop stop-color="#7DD3FC"/>
      <stop offset=".45" stop-color="#FFFFFF"/>
      <stop offset="1" stop-color="#2DD4BF"/>
    </linearGradient>
    <linearGradient id="c" x1="135" y1="32" x2="89" y2="176" gradientUnits="userSpaceOnUse">
      <stop stop-color="#F0ABFC"/>
      <stop offset=".45" stop-color="#FFFFFF"/>
      <stop offset="1" stop-color="#A78BFA"/>
    </linearGradient>
    <linearGradient id="d" x1="58" y1="49" x2="142" y2="135" gradientUnits="userSpaceOnUse">
      <stop stop-color="#FFFFFF"/>
      <stop offset=".38" stop-color="#7DD3FC"/>
      <stop offset=".72" stop-color="#F0ABFC"/>
      <stop offset="1" stop-color="#FDE68A"/>
    </linearGradient>
    <linearGradient id="e" x1="41" y1="70" x2="159" y2="141" gradientUnits="userSpaceOnUse">
      <stop stop-color="#2DD4BF"/>
      <stop offset=".5" stop-color="#FDE68A"/>
      <stop offset="1" stop-color="#FB7185"/>
    </linearGradient>
  </defs>
</svg>
