<svg width="200" height="200" viewBox="0 0 200 200" fill="none" xmlns="http://www.w3.org/2000/svg">
  <defs>
    <linearGradient id="g" x1="35" y1="35" x2="165" y2="165" gradientUnits="userSpaceOnUse">
      <stop stop-color="#F5F5F7"/>
      <stop offset="0.48" stop-color="#9CCBFF"/>
      <stop offset="1" stop-color="#7CFFCB"/>
    </linearGradient>
    <linearGradient id="p" x1="69" y1="58" x2="143" y2="143" gradientUnits="userSpaceOnUse">
      <stop stop-color="#FFFFFF"/>
      <stop offset="1" stop-color="#B8FFE6"/>
    </linearGradient>
    <filter id="shadow" x="-40%" y="-40%" width="180%" height="180%">
      <feDropShadow dx="0" dy="18" stdDeviation="18" flood-color="#000000" flood-opacity="0.32"/>
    </filter>
  </defs>
  <rect x="24" y="24" width="152" height="152" rx="42" fill="#0B0D12"/>
  <rect x="30" y="30" width="140" height="140" rx="36" stroke="url(#g)" stroke-opacity="0.7" stroke-width="2"/>
  <g filter="url(#shadow)">
    <path d="M63 58C63 54.2 67.1 51.8 70.4 53.7L139.4 93.2C142.7 95.1 142.7 99.9 139.4 101.8L70.4 141.3C67.1 143.2 63 140.8 63 137V58Z" fill="url(#p)"/>
    <path d="M77 75.5C77 73 79.8 71.4 81.9 72.7L119.5 95.2C121.6 96.5 121.6 99.5 119.5 100.8L81.9 123.3C79.8 124.6 77 123 77 120.5V75.5Z" fill="#0B0D12" fill-opacity="0.86"/>
  </g>
  <circle cx="146" cy="55" r="8" fill="#7CFFCB"/>
</svg>
